<svg xmlns="http://www.w3.org/2000/svg" width="1280" height="499" viewBox="0 0 1280 499">
<rect width="100%" height="100%" fill="#101b2b"/>
<style>text{font-family:monospace;fill:#dce6f1;font-size:13px}.title{font-family:sans-serif;font-size:20px;font-weight:bold}</style>
<text x="24" y="30" class="title">03 / A CRC error : wait for pair timeout, then select channel B</text>
<text x="24" y="52">XSim VCD | accelerated testbench | time : ns | buses : hex</text>
<path d="M230.0,76 V463" stroke="#293b50"/>
<text x="230.0" y="485" text-anchor="middle">75715</text>
<path d="M430.0,76 V463" stroke="#293b50"/>
<text x="430.0" y="485" text-anchor="middle">75935</text>
<path d="M630.0,76 V463" stroke="#293b50"/>
<text x="630.0" y="485" text-anchor="middle">76155</text>
<path d="M830.0,76 V463" stroke="#293b50"/>
<text x="830.0" y="485" text-anchor="middle">76375</text>
<path d="M1030.0,76 V463" stroke="#293b50"/>
<text x="1030.0" y="485" text-anchor="middle">76595</text>
<path d="M1230.0,76 V463" stroke="#293b50"/>
<text x="1230.0" y="485" text-anchor="middle">76815</text>
<text x="16" y="96">a_crc_error</text>
<path d="M230.00,103H475.45V79H484.55V103H1230.00V103" fill="none" stroke="#7bd9ca" stroke-width="2"/>
<text x="16" y="144">b_crc_ok</text>
<path d="M230.00,151H475.45V127H484.55V151H1230.00V151" fill="none" stroke="#7bd9ca" stroke-width="2"/>
<text x="16" y="192">pair_wait_active</text>
<path d="M230.00,199H502.73V175H948.18V199H1230.00V199" fill="none" stroke="#7bd9ca" stroke-width="2"/>
<text x="16" y="240">decision_valid</text>
<path d="M230.00,247H957.27V223H966.36V247H1230.00V247" fill="none" stroke="#7bd9ca" stroke-width="2"/>
<text x="16" y="288">decision_degraded</text>
<path d="M230.00,295H957.27V271H966.36V295H1230.00V295" fill="none" stroke="#7bd9ca" stroke-width="2"/>
<text x="16" y="336">decision_selected_b</text>
<path d="M230.00,343H957.27V319H966.36V343H1230.00V343" fill="none" stroke="#7bd9ca" stroke-width="2"/>
<text x="16" y="384">duplicate_out_valid</text>
<path d="M230.00,391H966.36V367H975.45V391H1230.00V391" fill="none" stroke="#7bd9ca" stroke-width="2"/>
<text x="16" y="432">rs422_tx_out</text>
<path d="M230.00,415H1057.27V439H1148.18V415H1230.00V415" fill="none" stroke="#7bd9ca" stroke-width="2"/>
</svg>